<svg width="20" height="20" viewBox="0 0 20 20" fill="none" xmlns="http://www.w3.org/2000/svg">
<path d="M13.3334 1.66666H6.66669C3.90919 1.66666 1.66669 3.90916 1.66669 6.66666V17.5C1.66669 17.721 1.75448 17.933 1.91076 18.0893C2.06704 18.2455 2.27901 18.3333 2.50002 18.3333H13.3334C16.0909 18.3333 18.3334 16.0908 18.3334 13.3333V6.66666C18.3334 3.90916 16.0909 1.66666 13.3334 1.66666ZM16.6667 13.3333C16.6667 15.1717 15.1717 16.6667 13.3334 16.6667H3.33335V6.66666C3.33335 4.82833 4.82835 3.33333 6.66669 3.33333H13.3334C15.1717 3.33333 16.6667 4.82833 16.6667 6.66666V13.3333Z" fill="white"/>
<path d="M10.8333 5.83334H9.16665V9.16667H5.83331V10.8333H9.16665V14.1667H10.8333V10.8333H14.1666V9.16667H10.8333V5.83334Z" fill="white"/>
</svg>
