<svg width="20" height="20" viewBox="0 0 20 20" fill="none" xmlns="http://www.w3.org/2000/svg">
<path d="M16.6667 1.66666H8.33335C7.41419 1.66666 6.66669 2.41416 6.66669 3.33332V6.66666H3.33335C2.41419 6.66666 1.66669 7.41416 1.66669 8.33332V16.6667C1.66669 17.5858 2.41419 18.3333 3.33335 18.3333H11.6667C12.5859 18.3333 13.3334 17.5858 13.3334 16.6667V13.3333H16.6667C17.5859 13.3333 18.3334 12.5858 18.3334 11.6667V3.33332C18.3334 2.41416 17.5859 1.66666 16.6667 1.66666ZM3.33335 16.6667V8.33332H11.6667L11.6684 16.6667H3.33335ZM16.6667 11.6667H13.3334V8.33332C13.3334 7.41416 12.5859 6.66666 11.6667 6.66666H8.33335V3.33332H16.6667V11.6667Z" fill="white"/>
<path d="M5 10H10V11.6667H5V10ZM5 13.3333H10V15H5V13.3333Z" fill="white"/>
</svg>
