<svg width="16" height="16" viewBox="0 0 16 16" fill="none" xmlns="http://www.w3.org/2000/svg">
<path d="M3.41467 14C3.66667 14.252 4.00133 14.3907 4.35733 14.3907C4.71333 14.3907 5.048 14.252 5.3 14L8.19067 11.1093C8.66942 11.257 9.16766 11.3319 9.66867 11.3313C10.3253 11.3333 10.9759 11.205 11.5826 10.9538C12.1894 10.7027 12.7402 10.3336 13.2033 9.868C13.9025 9.17084 14.379 8.28192 14.5727 7.31378C14.7664 6.34564 14.6685 5.3418 14.2913 4.42933L13.9113 3.504L11.082 6.33267L9.668 4.918L12.4967 2.08933L11.5707 1.70867C10.9665 1.45996 10.3194 1.33243 9.666 1.33333C8.33067 1.33333 7.07533 1.85333 6.132 2.79733C5.48733 3.43987 5.03083 4.24663 4.81201 5.13013C4.59319 6.01364 4.6204 6.94019 4.89067 7.80933L2 10.7C1.7502 10.9501 1.60989 11.2892 1.60989 11.6427C1.60989 11.9962 1.7502 12.3352 2 12.5853L3.41467 14ZM6.44667 8.13933L6.27733 7.72867C6.00044 7.05957 5.92841 6.32334 6.07035 5.61326C6.21229 4.90319 6.56183 4.25123 7.07467 3.74C7.45578 3.35641 7.91756 3.06255 8.42646 2.87977C8.93536 2.69699 9.47859 2.62988 10.0167 2.68333L7.78133 4.91867L11.0807 8.21867L13.3173 5.982C13.3695 6.52041 13.3017 7.06368 13.1187 7.57273C12.9358 8.08179 12.6423 8.54396 12.2593 8.926C11.226 9.95933 9.61667 10.2773 8.27 9.72333L7.86 9.55333L4.35733 13.0573H4.358L4.35733 13.724V13.0573L2.94267 11.6427L6.44667 8.13933Z" fill="black" fill-opacity="0.3"/>
</svg>
