<svg width="20" height="20" viewBox="0 0 20 20" fill="none" xmlns="http://www.w3.org/2000/svg">
<path d="M11.4225 1.91084C11.3452 1.83338 11.2533 1.77194 11.1522 1.73001C11.0511 1.68808 10.9428 1.6665 10.8333 1.6665C10.7239 1.6665 10.6155 1.68808 10.5144 1.73001C10.4133 1.77194 10.3215 1.83338 10.2441 1.91084L5.37748 6.77751C5.36498 6.77667 5.35331 6.77 5.34081 6.77C5.23137 6.76989 5.12298 6.7914 5.02187 6.83331C4.92076 6.87521 4.82893 6.93667 4.75165 7.01417L3.57331 8.19251C3.34065 8.42435 3.1562 8.69999 3.03062 9.00349C2.90504 9.307 2.84081 9.63238 2.84165 9.96084C2.84165 10.6292 3.10248 11.2575 3.57415 11.7283L4.16331 12.3175L2.39498 14.0858C2.16176 14.3149 1.97708 14.5885 1.85194 14.8905C1.7268 15.1924 1.66379 15.5165 1.66665 15.8433C1.66271 16.2095 1.74013 16.572 1.89333 16.9046C2.04652 17.2372 2.27165 17.5317 2.55248 17.7667C2.98498 18.1325 3.54248 18.3333 4.12331 18.3333C4.81831 18.3333 5.50165 18.0492 5.99831 17.5525L7.69831 15.8533L8.28748 16.4417C9.23248 17.3858 10.8783 17.3867 11.8225 16.4425L13.0016 15.2642C13.0791 15.1869 13.1406 15.0951 13.1825 14.9939C13.2244 14.8928 13.2459 14.7845 13.2458 14.675C13.2458 14.6533 13.235 14.6333 13.2333 14.6117L18.0891 9.75584C18.1666 9.67852 18.2281 9.58668 18.27 9.48558C18.3119 9.38449 18.3335 9.27612 18.3335 9.16667C18.3335 9.05723 18.3119 8.94886 18.27 8.84776C18.2281 8.74667 18.1666 8.65483 18.0891 8.57751L11.4225 1.91084ZM10.6433 15.2642C10.4846 15.4158 10.2735 15.5003 10.054 15.5001C9.83449 15.5 9.62351 15.4151 9.46498 15.2633L8.28665 14.0858C8.20932 14.0084 8.11749 13.9469 8.01639 13.905C7.9153 13.8631 7.80693 13.8415 7.69748 13.8415C7.58804 13.8415 7.47967 13.8631 7.37857 13.905C7.27747 13.9469 7.18564 14.0084 7.10831 14.0858L4.81998 16.3733C4.63559 16.5593 4.38516 16.6647 4.12331 16.6667C3.94295 16.6696 3.76745 16.6082 3.62831 16.4933C3.53282 16.4143 3.45662 16.3145 3.4055 16.2016C3.35438 16.0887 3.32969 15.9656 3.33331 15.8417C3.33244 15.7344 3.35317 15.6281 3.39426 15.529C3.43535 15.4299 3.49596 15.3402 3.57248 15.265L5.92998 12.9075C6.00744 12.8302 6.06888 12.7383 6.11081 12.6372C6.15273 12.5362 6.17431 12.4278 6.17431 12.3183C6.17431 12.2089 6.15273 12.1005 6.11081 11.9994C6.06888 11.8983 6.00744 11.8065 5.92998 11.7292L4.75081 10.55C4.6733 10.4729 4.61188 10.3813 4.57011 10.2803C4.52833 10.1793 4.50705 10.071 4.50748 9.96167C4.50748 9.73834 4.59415 9.52917 4.75165 9.37167L5.34081 8.7825L11.2333 14.6758L10.6433 15.2642ZM12.2175 13.2708L6.72915 7.78251L10.8333 3.67834L16.3216 9.16667L12.2175 13.2708Z" fill="black" fill-opacity="0.5"/>
</svg>
