<svg width="20" height="20" viewBox="0 0 20 20" fill="none" xmlns="http://www.w3.org/2000/svg">
<path d="M6.14582 13.9842L7.18748 12.6825L3.83415 10L7.18748 7.3175L6.14582 6.01583L1.97915 9.34916C1.88152 9.42723 1.80271 9.52626 1.74854 9.63893C1.69438 9.75159 1.66626 9.87499 1.66626 10C1.66626 10.125 1.69438 10.2484 1.74854 10.3611C1.80271 10.4737 1.88152 10.5728 1.97915 10.6508L6.14582 13.9842ZM13.8542 6.01583L12.8125 7.3175L16.1658 10L12.8125 12.6825L13.8542 13.9842L18.0208 10.6508C18.1184 10.5728 18.1973 10.4737 18.2514 10.3611C18.3056 10.2484 18.3337 10.125 18.3337 10C18.3337 9.87499 18.3056 9.75159 18.2514 9.63893C18.1973 9.52626 18.1184 9.42723 18.0208 9.34916L13.8542 6.01583ZM12.48 2.68L9.14665 17.68L7.51915 17.3183L10.8525 2.31833L12.48 2.68Z" fill="black" fill-opacity="0.5"/>
</svg>
